<svg width="24" height="24" viewBox="0 0 24 24" xmlns="http://www.w3.org/2000/svg" fill="currentColor"><path d="M22.6277 10.8496C22.685 10.8496 22.7613 10.8592 22.8568 10.8783C22.9523 10.8974 23 10.9547 23 11.0501V13.3699C23 13.4654 22.9427 13.5227 22.8282 13.5418C22.7327 13.5418 22.6659 13.5418 22.6277 13.5418C22.0931 13.5418 21.6158 13.5895 21.1957 13.685C21.1193 13.7041 21.0525 13.7232 20.9952 13.7423C20.957 13.7613 20.9189 13.7804 20.8807 13.7995C20.8616 13.8186 20.8425 13.8282 20.8234 13.8282V13.8568C20.8043 13.8568 20.7947 13.8664 20.7947 13.8855C20.7947 13.9045 20.7852 13.9236 20.7661 13.9427C20.7661 13.9427 20.7661 13.9523 20.7661 13.9714C20.7661 14.0096 20.7566 14.0668 20.7375 14.1432C20.7375 14.2005 20.7375 14.2673 20.7375 14.3437C20.7184 14.4964 20.7088 14.6778 20.7088 14.8878C20.7279 15.0788 20.747 15.2792 20.7661 15.4893C20.7661 15.6993 20.7661 15.9189 20.7661 16.148C20.7852 16.3771 20.8043 16.6062 20.8234 16.8353C20.8234 17.0645 20.8234 17.2936 20.8234 17.5227C20.8425 17.7518 20.8425 17.9809 20.8234 18.21V18.3819V18.4105V18.5251V18.7256C20.8234 18.7637 20.8138 18.8019 20.7947 18.8401C20.7947 18.8783 20.7947 18.9165 20.7947 18.9547C20.7757 19.1074 20.747 19.2697 20.7088 19.4415C20.6706 19.6134 20.6325 19.7757 20.5943 19.9284C20.4797 20.253 20.3079 20.5585 20.0788 20.8449C19.8687 21.1313 19.6205 21.3699 19.3341 21.5609C19.2578 21.6182 19.1814 21.6659 19.105 21.7041C19.0477 21.7423 18.9809 21.7804 18.9045 21.8186C18.8091 21.8759 18.7231 21.9141 18.6468 21.9332C18.5895 21.9523 18.5227 21.9809 18.4463 22.0191C18.2554 22.0955 18.1122 22.1432 18.0167 22.1623L17.5871 22.2769C17.4916 22.296 17.3962 22.3151 17.3007 22.3341C17.2243 22.3341 17.1384 22.3341 17.043 22.3341L16.7566 22.3628H16.6134H16.4988C16.327 22.3628 16.1456 22.3628 15.9546 22.3628C15.7828 22.3628 15.6205 22.3532 15.4678 22.3341C15.3341 22.3341 15.1909 22.3151 15.0382 22.2769C14.9045 22.2196 14.8472 22.1432 14.8663 22.0477L15.2387 19.7279C15.2577 19.6516 15.315 19.6134 15.4105 19.6134C15.506 19.6134 15.5728 19.6134 15.611 19.6134C15.7637 19.6516 15.8974 19.6707 16.0119 19.6707H16.3842C16.4224 19.6707 16.4511 19.6802 16.4702 19.6993C16.5083 19.6993 16.5465 19.6898 16.5847 19.6707H16.7566C16.8138 19.6516 16.8711 19.642 16.9284 19.642C17.0048 19.642 17.062 19.6325 17.1002 19.6134C17.1384 19.6134 17.1671 19.6134 17.1862 19.6134C17.2243 19.5943 17.2625 19.5847 17.3007 19.5847C17.3389 19.5656 17.3675 19.5561 17.3866 19.5561C17.4057 19.537 17.4344 19.5275 17.4725 19.5275L17.6444 19.4415C17.6635 19.4224 17.6826 19.4129 17.7017 19.4129C17.7208 19.4129 17.7399 19.4034 17.7589 19.3843L17.8449 19.2983L17.9308 19.2124C17.9499 19.1933 17.9594 19.1838 17.9594 19.1838C17.9594 19.1647 17.969 19.1456 17.9881 19.1265C18.0262 19.0501 18.0453 19.0024 18.0453 18.9833C18.0835 18.8688 18.1122 18.7733 18.1313 18.6969V18.5824V18.4964V18.296V18.1528C18.1504 17.9427 18.1504 17.7423 18.1313 17.5513C18.1313 17.3413 18.1313 17.1313 18.1313 16.9213C18.1122 16.7112 18.1026 16.5012 18.1026 16.2912C18.1026 16.0812 18.0931 15.8711 18.074 15.6611C18.0549 15.432 18.0358 15.2029 18.0167 14.9738C18.0167 14.7255 18.0262 14.4678 18.0453 14.2005C18.0453 13.895 18.0835 13.5991 18.1599 13.3127C18.1981 13.1408 18.2554 12.9594 18.3317 12.7685C18.4272 12.5776 18.5418 12.3962 18.6754 12.2244L18.7041 12.1957C18.7041 12.1766 18.6945 12.1671 18.6754 12.1671C18.6754 12.1671 18.6754 12.1575 18.6754 12.1384C18.5418 11.9666 18.4368 11.7948 18.3604 11.6229C18.284 11.432 18.2267 11.2506 18.1885 11.0788C18.1504 10.9069 18.1217 10.7542 18.1026 10.6205C18.0835 10.4678 18.0644 10.315 18.0453 10.1623C18.0262 9.895 18.0167 9.64678 18.0167 9.41767C18.0358 9.16946 18.0549 8.94034 18.074 8.73032C18.0931 8.52029 18.1026 8.31027 18.1026 8.10025C18.1217 7.89022 18.1313 7.6802 18.1313 7.47017C18.1504 7.05012 18.1504 6.63962 18.1313 6.23867V6.09547V5.89499V5.78043V5.69451C18.1313 5.63723 18.1217 5.57996 18.1026 5.52268C18.0835 5.4654 18.074 5.41766 18.074 5.37948C18.0358 5.34129 18.0167 5.30311 18.0167 5.26492C17.9785 5.22673 17.9499 5.18855 17.9308 5.15036C17.9117 5.13127 17.9021 5.12172 17.9021 5.12172C17.9021 5.10263 17.8926 5.08353 17.8735 5.06444C17.8353 5.06444 17.7971 5.04535 17.7589 5.00716C17.7399 4.98807 17.7208 4.97852 17.7017 4.97852C17.6826 4.95943 17.6635 4.94034 17.6444 4.92124C17.6062 4.88306 17.5489 4.86396 17.4725 4.86396C17.3962 4.82578 17.3389 4.80668 17.3007 4.80668C17.2625 4.78759 17.2243 4.77805 17.1862 4.77805C17.1671 4.77805 17.1384 4.7685 17.1002 4.74941C17.043 4.73031 16.9379 4.72077 16.7852 4.72077L16.6134 4.69213H16.5561H16.4702C16.3365 4.69213 16.2124 4.69213 16.0978 4.69213C15.9833 4.69213 15.8592 4.70167 15.7255 4.72077C15.6301 4.75895 15.5251 4.7685 15.4105 4.74941C15.2959 4.73031 15.2387 4.67303 15.2387 4.57757L14.8663 2.2864C14.8472 2.19093 14.895 2.13365 15.0095 2.11456C15.1432 2.09547 15.2387 2.08592 15.2959 2.08592C15.3914 2.06683 15.4773 2.05728 15.5537 2.05728C15.6492 2.03819 15.7446 2.02864 15.8401 2.02864L16.4129 2H16.6993L16.9857 2.02864C17.0811 2.04773 17.1766 2.05728 17.2721 2.05728C17.3866 2.05728 17.4916 2.07637 17.5871 2.11456L18.0167 2.20048C18.1122 2.21957 18.2554 2.2673 18.4463 2.34368C18.6372 2.40095 18.79 2.46778 18.9045 2.54415C18.9809 2.58234 19.0477 2.62053 19.105 2.65871C19.1814 2.6969 19.2578 2.74463 19.3341 2.80191C19.6205 3.01193 19.8687 3.26015 20.0788 3.54654C20.3079 3.83294 20.4797 4.13843 20.5943 4.46301C20.6897 4.74941 20.7566 5.06444 20.7947 5.40812C20.8138 5.4654 20.8234 5.54177 20.8234 5.63724V5.86635V5.98091V6.18139C20.8425 6.63962 20.8425 7.09786 20.8234 7.55609C20.8234 7.78521 20.8138 8.01433 20.7947 8.24344C20.7947 8.45347 20.7852 8.66349 20.7661 8.87351C20.747 9.08354 20.7279 9.29356 20.7088 9.50359C20.7088 9.69452 20.7184 9.8759 20.7375 10.0477C20.7375 10.1814 20.7566 10.3055 20.7947 10.4201C20.7947 10.4582 20.7947 10.4869 20.7947 10.506C20.8138 10.506 20.8234 10.5155 20.8234 10.5346L20.8807 10.5633C20.9189 10.5823 20.957 10.6014 20.9952 10.6205C21.0525 10.6396 21.1193 10.6587 21.1957 10.6778C21.3866 10.716 21.6062 10.7542 21.8544 10.7924C22.1026 10.8115 22.3604 10.8306 22.6277 10.8496Z" stroke="currentColor" stroke-width="0.2"/><path d="M11.3421 8.6444C11.3994 9.54177 11.2657 10.4391 10.9411 11.3365C10.6356 12.2148 10.1488 13.0263 9.48052 13.7709C8.83135 14.5155 8.01989 15.1456 7.04615 15.6611C6.0724 16.1766 4.95545 16.5203 3.69531 16.6921V21.9618C3.69531 22.0191 3.67621 22.105 3.63803 22.2196C3.61894 22.3151 3.5712 22.3628 3.49483 22.3628H1.14638C1.07001 22.3628 1.02228 22.3055 1.00318 22.1909C1.00318 22.0764 1.00318 22 1.00318 21.9618V4.37709C1.02228 3.5179 1.02228 2.91647 1.00318 2.57279C0.984089 2.22912 1.05091 2.05728 1.20366 2.05728C1.79555 2.05728 2.25378 2.05728 2.57836 2.05728C2.90294 2.05728 3.14161 2.05728 3.29435 2.05728C3.4471 2.05728 3.53302 2.06683 3.55211 2.08592C3.5903 2.08592 3.60939 2.08592 3.60939 2.08592C3.60939 2.08592 3.65712 2.09547 3.75259 2.11456C3.84805 2.11456 3.94352 2.12411 4.03898 2.1432C4.15354 2.1432 4.25855 2.15274 4.35402 2.17184C4.44949 2.19093 4.51631 2.20048 4.5545 2.20048C4.51631 2.20048 4.62132 2.21957 4.86953 2.25776C5.13684 2.29594 5.47097 2.37232 5.87192 2.48687C6.27288 2.60143 6.71202 2.76372 7.18934 2.97375C7.68576 3.16468 8.15355 3.42244 8.59269 3.74702C9.45188 4.358 10.1106 5.08353 10.5688 5.92363C11.0461 6.76373 11.3039 7.67065 11.3421 8.6444ZM3.69531 13.9714C4.32538 13.895 4.94591 13.7136 5.55688 13.4272C6.16786 13.1408 6.70247 12.7685 7.1607 12.3103C7.63803 11.852 8.01035 11.327 8.27765 10.7351C8.56405 10.1241 8.68815 9.47495 8.64996 8.78759C8.61178 8.15752 8.44949 7.61337 8.16309 7.15514C7.89579 6.6969 7.53302 6.30549 7.07479 5.98091C6.61655 5.65633 6.09149 5.39857 5.4996 5.20764C4.92681 5.01671 4.32538 4.88306 3.69531 4.80668V13.9714Z" stroke="currentColor" stroke-width="0.2"/></svg>
